<svg width="32" height="32" viewBox="0 0 32 32" fill="none" xmlns="http://www.w3.org/2000/svg">
<path fill-rule="evenodd" clip-rule="evenodd" d="M12.9406 8.42451C12.0897 7.61785 11.1186 7.36824 10.3181 7.41037C9.76906 7.43926 9.30056 7.01761 9.27166 6.46859C9.24277 5.91956 9.66442 5.45106 10.2134 5.42216C11.5145 5.35369 13.032 5.76772 14.3104 6.97967C15.0944 7.72295 15.758 8.73666 16.2348 10.0615C16.7115 8.73666 17.3752 7.72295 18.1592 6.97967C19.4375 5.76772 20.9551 5.35369 22.2561 5.42216C22.8052 5.45106 23.2268 5.91956 23.1979 6.46859C23.169 7.01761 22.7005 7.43926 22.1515 7.41037C21.351 7.36824 20.3798 7.61785 19.529 8.42451C18.8623 9.05652 18.2207 10.0782 17.823 11.6826C21.0326 9.26493 25.9398 7.27024 28.1767 10.0664C30.9171 13.4919 26.1857 19.6893 23.1993 21.3484C25.1903 22.3439 25.8539 24.6667 24.1948 25.994C21.443 28.1954 17.5657 25.3359 16.2348 23.0143C14.9038 25.3359 11.0266 28.1954 8.27482 25.994C6.61569 24.6667 7.27934 22.3439 9.2703 21.3484C6.28387 19.6893 1.55247 13.4919 4.29291 10.0664C6.52979 7.27024 11.437 9.26492 14.6466 11.6826C14.2489 10.0782 13.6072 9.05652 12.9406 8.42451Z" fill="black"/>
</svg>
