<?xml version="1.0" standalone="no"?>
<!DOCTYPE svg PUBLIC "-//W3C//DTD SVG 20010904//EN"
 "http://www.w3.org/TR/2001/REC-SVG-20010904/DTD/svg10.dtd">
<svg version="1.0" xmlns="http://www.w3.org/2000/svg"
 width="260.000000pt" height="260.000000pt" viewBox="0 0 260.000000 260.000000"
 preserveAspectRatio="xMidYMid meet">
<metadata>
Created by potrace 1.11, written by Peter Selinger 2001-2013
</metadata>
<g transform="translate(0.000000,260.000000) scale(0.100000,-0.100000)"
fill="#000000" stroke="none">
<path d="M795 2223 c2 -7 0 -13 -5 -13 -6 0 -10 6 -10 13 0 9 -2 9 -8 0 -4 -7
-25 -14 -46 -16 -22 -2 -44 -11 -50 -19 -6 -8 -19 -14 -28 -12 -10 1 -18 -2
-18 -7 0 -6 -6 -7 -12 -3 -10 6 -10 5 -1 -7 10 -13 8 -15 -15 -15 -15 1 -28
-5 -28 -11 -3 -25 -4 -28 -12 -17 -5 7 -14 5 -27 -9 -11 -11 -15 -17 -8 -13 6
3 15 1 19 -5 4 -7 3 -9 -4 -5 -6 3 -13 2 -17 -3 -3 -6 -13 -7 -23 -4 -13 4
-13 2 3 -11 11 -9 16 -16 10 -15 -5 1 -19 1 -30 0 -15 -1 -17 -3 -6 -10 11 -7
9 -11 -8 -20 -12 -7 -19 -16 -16 -21 3 -4 1 -19 -4 -32 -6 -12 -10 -17 -10
-10 -1 6 -6 12 -12 12 -6 0 -8 -7 -5 -16 4 -9 1 -23 -5 -30 -9 -11 -9 -14 0
-14 7 0 9 -5 6 -10 -4 -6 -11 -7 -17 -4 -6 4 -8 2 -4 -4 3 -5 3 -12 -1 -15 -5
-2 -2 -2 5 -1 16 4 16 -12 -1 -19 -18 -7 -17 -148 1 -169 6 -8 9 -18 5 -21 -3
-4 -1 -7 5 -7 7 0 11 -3 11 -7 -5 -29 3 -52 15 -47 8 3 14 -1 13 -8 -1 -34 4
-48 18 -48 8 0 16 -7 16 -15 3 -29 4 -33 13 -42 5 -5 6 -3 2 5 -4 6 -2 12 3
12 6 0 11 -7 11 -15 0 -9 6 -12 15 -9 10 4 15 0 15 -15 0 -15 5 -21 17 -19 10
2 18 -3 18 -12 0 -8 8 -14 17 -12 9 1 20 -3 24 -9 4 -7 3 -9 -3 -6 -5 3 -10 0
-10 -8 0 -11 5 -12 20 -3 14 7 17 7 13 -1 -4 -6 0 -11 8 -11 9 0 16 -7 16 -15
0 -9 -6 -12 -16 -8 -11 4 -15 1 -12 -13 2 -13 -4 -20 -20 -22 -19 -3 -21 -6
-11 -18 9 -11 7 -14 -10 -14 -16 0 -21 -6 -22 -27 0 -25 -1 -26 -9 -8 -11 26
-14 18 -21 -62 -2 -17 -7 -30 -11 -27 -4 3 -5 11 -1 19 3 8 1 15 -4 15 -9 0
-11 -10 -15 -100 -2 -30 -7 -61 -12 -69 -6 -10 -6 -12 2 -7 8 5 12 -6 12 -31
1 -69 1 -73 11 -73 6 0 8 4 4 9 -3 5 -1 12 4 15 5 3 8 -8 7 -25 -2 -23 2 -33
16 -37 10 -2 15 -8 12 -13 -3 -5 -10 -6 -16 -3 -7 4 -8 2 -4 -5 4 -6 11 -9 16
-6 5 3 11 -4 15 -15 3 -11 13 -20 22 -20 9 0 13 -6 9 -15 -4 -10 1 -15 15 -15
15 0 19 -5 15 -15 -3 -8 -2 -14 2 -14 34 5 62 -3 62 -18 1 -20 30 -64 30 -45
0 7 7 12 15 12 8 0 15 -6 15 -12 0 -10 2 -10 9 0 6 11 10 10 15 -3 5 -15 9
-15 24 -4 15 13 16 12 3 -4 -8 -9 -11 -21 -7 -24 4 -4 11 -1 16 7 9 13 10 13
10 0 0 -12 2 -12 9 -2 7 12 17 -3 25 -40 0 -3 4 -9 8 -13 9 -9 5 16 -5 32 -5
7 -4 13 1 13 6 0 13 -7 16 -16 4 -10 15 -14 33 -12 22 2 27 -1 25 -14 -2 -13
4 -18 19 -18 14 0 19 -5 16 -14 -4 -10 2 -16 16 -18 12 -2 21 -9 19 -16 -2
-10 17 -17 40 -13 4 0 12 -8 18 -19 6 -11 15 -18 21 -15 5 4 9 -3 9 -13 0 -13
6 -19 18 -18 9 0 16 -5 14 -11 -1 -7 4 -13 10 -14 7 -1 24 -2 38 -2 18 -2 24
-7 22 -19 -2 -10 2 -18 8 -18 5 0 10 8 11 18 1 11 4 9 9 -8 4 -14 8 -20 9 -14
1 6 23 10 54 9 70 -2 97 4 91 20 -3 7 1 13 8 12 39 -1 58 5 58 18 0 8 7 15 15
15 8 0 15 6 15 13 0 8 7 14 15 15 8 1 22 3 30 4 8 1 12 5 9 10 -3 5 -10 5 -16
2 -7 -4 -8 -2 -4 4 4 7 18 12 32 12 25 0 33 15 12 23 -7 3 3 6 22 6 23 1 30 4
22 10 -11 6 -10 10 5 16 10 5 22 7 26 6 5 -1 5 9 1 21 -6 19 -5 21 8 10 12
-10 18 -8 33 8 13 15 22 17 36 9 15 -8 19 -6 20 8 1 10 1 21 0 25 0 4 7 4 16
1 10 -4 14 -2 10 4 -3 5 1 10 9 10 10 0 11 -4 4 -11 -15 -15 -12 -22 12 -23
18 -2 20 0 8 7 -15 9 -13 11 12 14 6 0 13 8 15 16 4 12 3 12 -5 2 -7 -11 -11
-10 -16 4 -4 10 -4 15 -1 12 4 -4 19 -2 33 3 21 8 29 7 39 -7 14 -19 17 -10
14 28 -2 12 5 18 18 18 13 0 21 7 22 18 0 15 1 14 8 -2 7 -19 8 -19 13 2 5 16
11 20 25 15 16 -6 16 -5 4 10 -12 15 -11 17 3 17 10 0 15 4 11 9 -3 5 4 13 16
16 11 4 18 9 15 12 -3 4 1 11 10 18 9 6 17 27 17 47 1 28 5 34 17 30 13 -5 13
-4 0 13 -9 11 -10 16 -2 11 13 -8 14 -3 14 84 0 81 -5 129 -14 124 -4 -3 -5
-12 -2 -22 5 -14 4 -14 -4 -3 -7 10 -7 21 0 34 6 12 6 17 0 13 -13 -8 -23 19
-15 41 4 10 2 14 -5 9 -11 -7 -36 27 -26 37 3 3 -4 3 -15 0 -17 -4 -20 -2 -15
11 4 11 1 16 -13 16 -15 0 -19 7 -19 33 1 28 7 35 44 53 46 22 64 41 56 59 -3
5 2 1 10 -9 16 -19 16 -19 16 2 0 12 6 22 14 22 8 0 16 7 20 15 3 8 13 15 23
15 14 0 15 2 5 9 -11 6 -8 14 12 34 17 17 24 32 19 43 -4 11 -3 15 5 10 6 -3
13 -2 17 4 3 5 2 10 -2 10 -5 0 -9 10 -10 23 0 12 1 16 4 10 5 -14 24 -18 22
-5 -4 21 2 42 10 37 5 -3 13 -1 16 5 4 6 1 9 -7 8 -21 -5 -20 153 1 170 14 11
14 11 -1 6 -13 -4 -18 -1 -18 11 0 10 -5 14 -12 9 -10 -5 -10 -4 -1 6 6 7 9
19 5 28 -5 13 -7 12 -14 -4 -6 -14 -7 -11 -5 14 2 17 0 33 -5 33 -4 1 -14 2
-20 3 -7 0 -13 8 -13 16 0 8 -4 21 -9 29 -7 10 -6 12 4 6 9 -5 11 -4 6 3 -4 7
-13 12 -19 12 -13 0 -43 40 -39 53 1 4 -7 7 -18 7 -14 0 -20 7 -20 23 0 13 -3
17 -8 10 -8 -13 -50 5 -51 22 -1 5 -14 10 -31 10 -23 -1 -27 2 -18 12 6 7 8
14 4 14 -23 5 -32 3 -38 -6 -5 -6 -8 -6 -8 3 0 6 -12 12 -26 12 -16 0 -23 4
-18 12 5 7 3 8 -6 3 -19 -12 -61 -15 -54 -4 3 5 9 7 14 4 5 -3 11 -2 14 3 9
14 -86 6 -98 -9 -6 -8 -22 -13 -35 -11 -17 3 -21 0 -15 -10 5 -9 2 -8 -11 2
-17 14 -18 13 -11 -5 4 -11 4 -16 0 -12 -4 4 -13 2 -20 -3 -6 -6 -16 -10 -20
-9 -22 4 -34 -2 -34 -16 0 -8 -6 -12 -14 -9 -8 3 -16 -3 -19 -16 -3 -11 -11
-19 -18 -18 -7 2 -13 -2 -14 -9 0 -6 -4 -15 -9 -20 -5 -4 -6 -3 -2 4 3 6 2 14
-4 18 -9 5 -15 -15 -11 -38 1 -5 -8 -11 -20 -14 -14 -4 -19 -12 -16 -24 3 -10
2 -18 -2 -17 -19 2 -31 -3 -26 -12 3 -5 1 -10 -5 -10 -8 0 -8 -6 0 -20 6 -12
7 -20 1 -20 -5 0 -11 5 -13 12 -3 7 -7 6 -11 -5 -3 -9 -2 -17 3 -17 10 0 -17
-57 -32 -66 -6 -4 -14 0 -19 7 -6 10 -9 11 -9 2 0 -7 -5 -13 -11 -13 -5 0 -7
5 -4 10 3 6 -1 10 -10 10 -9 0 -14 -4 -10 -9 3 -5 1 -13 -5 -16 -6 -4 -9 -1
-8 7 2 8 -9 14 -29 16 -29 3 -32 6 -29 32 2 17 -1 27 -6 24 -5 -3 -7 -12 -4
-20 3 -7 2 -16 -3 -18 -8 -5 -9 -3 -12 52 -1 18 -6 35 -11 38 -4 3 -6 10 -3
15 3 5 -2 6 -11 2 -14 -5 -16 -2 -11 16 4 15 2 21 -6 18 -16 -6 -35 15 -29 31
2 7 -2 11 -10 10 -7 -2 -12 3 -11 10 2 6 -6 12 -18 12 -15 0 -19 5 -15 15 3 8
1 16 -4 16 -6 1 -14 3 -20 4 -5 1 -18 3 -27 4 -16 2 -15 3 2 11 21 9 18 10
-45 14 -8 1 -15 8 -15 16 0 10 -11 16 -35 17 -19 0 -43 2 -53 2 -12 1 -16 5
-11 14 5 7 0 6 -11 -3 -17 -13 -18 -13 -13 0 4 11 -2 15 -28 15 -23 0 -33 -4
-29 -12z m981 -5 c5 -7 2 -9 -8 -5 -9 3 -21 0 -27 -6 -8 -8 -11 -8 -11 0 0 10
14 20 32 22 4 1 10 -4 14 -11z m-936 -4 c0 -8 -19 -13 -24 -6 -3 5 1 9 9 9 8
0 15 -2 15 -3z m-414 -501 c-3 -19 -19 -21 -21 -2 -2 9 3 16 10 16 7 0 12 -6
11 -14z m1518 -339 c3 -8 2 -12 -4 -9 -6 3 -10 10 -10 16 0 14 7 11 14 -7z
m-1202 -638 c7 4 8 2 4 -5 -9 -13 -26 -5 -25 12 0 9 2 8 6 -1 2 -6 10 -9 15
-6z"/>
<path d="M2011 2164 c0 -11 3 -14 6 -6 3 7 2 16 -1 19 -3 4 -6 -2 -5 -13z"/>
<path d="M2157 2013 c-4 -3 -7 -11 -7 -17 0 -6 5 -5 12 2 6 6 9 14 7 17 -3 3
-9 2 -12 -2z"/>
<path d="M2229 1853 c-5 -22 -4 -131 1 -127 5 5 7 134 3 134 -2 0 -4 -3 -4 -7z"/>
<path d="M1990 1399 c0 -5 5 -7 10 -4 6 3 10 8 10 11 0 2 -4 4 -10 4 -5 0 -10
-5 -10 -11z"/>
<path d="M1846 722 c-3 -5 1 -9 9 -9 8 0 12 4 9 9 -3 4 -7 8 -9 8 -2 0 -6 -4
-9 -8z"/>
<path d="M1919 692 c-13 -15 -12 -16 3 -4 14 11 17 10 21 -5 4 -16 5 -16 6 -1
2 25 -15 30 -30 10z"/>
<path d="M647 683 c3 -7 6 -13 8 -13 1 0 7 6 13 13 8 10 6 13 -7 13 -11 0 -17
-6 -14 -13z"/>
<path d="M1965 691 c-3 -5 0 -13 6 -17 7 -4 9 -3 5 4 -3 5 0 13 6 15 9 4 10 6
1 6 -6 1 -14 -3 -18 -8z"/>
<path d="M604 674 c-18 -14 -18 -15 4 -4 12 6 22 13 22 15 0 8 -5 6 -26 -11z"/>
<path d="M753 665 c0 -8 4 -12 9 -9 5 3 6 10 3 15 -9 13 -12 11 -12 -6z"/>
<path d="M710 666 c0 -2 7 -7 16 -10 8 -3 12 -2 9 4 -6 10 -25 14 -25 6z"/>
<path d="M1859 653 c-13 -17 -13 -17 6 -3 11 8 22 16 24 17 2 2 0 3 -6 3 -6 0
-17 -8 -24 -17z"/>
<path d="M1896 655 c-9 -26 -7 -32 5 -12 6 10 9 21 6 23 -2 3 -7 -2 -11 -11z"/>
<path d="M1990 661 c0 -6 4 -13 10 -16 6 -3 7 1 4 9 -7 18 -14 21 -14 7z"/>
<path d="M2010 666 c0 -3 9 -10 20 -16 11 -6 20 -8 20 -6 0 3 -9 10 -20 16
-11 6 -20 8 -20 6z"/>
<path d="M1696 652 c-3 -5 1 -9 9 -9 8 0 12 4 9 9 -3 4 -7 8 -9 8 -2 0 -6 -4
-9 -8z"/>
<path d="M651 638 c-1 -22 9 -28 34 -17 19 9 19 9 -2 5 -14 -2 -23 2 -26 13
-4 14 -5 14 -6 -1z"/>
<path d="M1920 635 c-7 -9 -10 -18 -7 -22 4 -3 9 2 13 11 3 9 11 13 17 9 6 -3
7 -1 3 5 -9 15 -11 15 -26 -3z"/>
<path d="M2065 640 c6 -9 -8 -14 -28 -11 -5 1 -6 -3 -2 -9 4 -7 12 -7 24 0 10
5 22 6 27 2 5 -4 2 1 -5 11 -14 18 -26 24 -16 7z"/>
<path d="M524 629 c-4 -7 -3 -9 4 -5 5 3 13 0 15 -6 4 -9 6 -10 6 -1 1 17 -16
25 -25 12z"/>
<path d="M929 623 c-13 -16 -12 -17 4 -4 9 7 17 15 17 17 0 8 -8 3 -21 -13z"/>
<path d="M1736 632 c-3 -5 1 -9 9 -9 8 0 12 4 9 9 -3 4 -7 8 -9 8 -2 0 -6 -4
-9 -8z"/>
<path d="M820 626 c0 -2 9 -6 20 -9 11 -3 18 -1 14 4 -5 9 -34 13 -34 5z"/>
<path d="M755 610 c-3 -6 1 -7 9 -4 18 7 21 14 7 14 -6 0 -13 -4 -16 -10z"/>
<path d="M1816 607 c3 -10 9 -15 12 -12 3 3 0 11 -7 18 -10 9 -11 8 -5 -6z"/>
<path d="M1861 612 c-1 -7 -5 -11 -9 -8 -5 3 -9 -1 -9 -9 0 -11 4 -12 13 -4 9
7 18 2 33 -17 12 -15 21 -22 21 -17 0 6 -7 16 -15 23 -8 7 -12 17 -8 23 3 5 1
7 -5 3 -5 -3 -13 0 -15 6 -4 10 -6 10 -6 0z"/>
<path d="M2000 611 c-8 -6 -17 -8 -21 -5 -4 2 -11 -1 -15 -8 -4 -7 -4 -10 1
-6 4 4 14 3 22 -4 7 -6 16 -8 20 -4 3 3 0 6 -7 6 -9 0 -7 5 6 15 21 16 17 20
-6 6z"/>
<path d="M465 600 c-3 -6 1 -7 9 -4 18 7 21 14 7 14 -6 0 -13 -4 -16 -10z"/>
<path d="M503 595 c0 -8 4 -12 9 -9 5 3 6 10 3 15 -9 13 -12 11 -12 -6z"/>
<path d="M616 597 c3 -10 9 -15 12 -12 3 3 0 11 -7 18 -10 9 -11 8 -5 -6z"/>
<path d="M780 600 c-9 -6 -10 -10 -3 -10 6 0 15 5 18 10 8 12 4 12 -15 0z"/>
<path d="M2076 593 c-6 -14 -5 -15 5 -6 7 7 10 15 7 18 -3 3 -9 -2 -12 -12z"/>
<path d="M2100 586 c0 -2 8 -10 18 -17 15 -13 16 -12 3 4 -13 16 -21 21 -21
13z"/>
<path d="M555 570 c-3 -5 -5 -10 -3 -11 27 -6 39 -5 45 4 3 7 3 9 -2 5 -4 -4
-14 -3 -21 3 -8 7 -14 7 -19 -1z"/>
<path d="M675 571 c-3 -5 0 -13 6 -17 7 -4 9 -3 5 4 -3 5 0 13 6 15 9 4 10 6
1 6 -6 1 -14 -3 -18 -8z"/>
<path d="M1920 571 c0 -6 4 -13 10 -16 6 -3 7 1 4 9 -7 18 -14 21 -14 7z"/>
<path d="M447 559 c7 -7 15 -10 18 -7 3 3 -2 9 -12 12 -14 6 -15 5 -6 -5z"/>
<path d="M705 560 c-3 -6 1 -7 9 -4 18 7 21 14 7 14 -6 0 -13 -4 -16 -10z"/>
<path d="M2065 559 c-4 -6 -5 -12 -2 -15 2 -3 7 2 10 11 7 17 1 20 -8 4z"/>
<path d="M490 539 c0 -5 5 -7 10 -4 6 3 10 8 10 11 0 2 -4 4 -10 4 -5 0 -10
-5 -10 -11z"/>
<path d="M516 533 c-6 -14 -5 -15 5 -6 7 7 10 15 7 18 -3 3 -9 -2 -12 -12z"/>
<path d="M610 539 c0 -5 5 -7 10 -4 6 3 10 8 10 11 0 2 -4 4 -10 4 -5 0 -10
-5 -10 -11z"/>
<path d="M636 533 c-6 -14 -5 -15 5 -6 7 7 10 15 7 18 -3 3 -9 -2 -12 -12z"/>
<path d="M1962 536 c7 -8 17 -12 22 -9 4 3 2 9 -5 14 -22 13 -31 11 -17 -5z"/>
<path d="M2081 543 c-1 -17 16 -25 25 -12 4 7 3 9 -4 5 -5 -3 -13 0 -15 6 -4
9 -6 10 -6 1z"/>
<path d="M1055 530 c-3 -5 -1 -10 4 -10 6 0 11 5 11 10 0 6 -2 10 -4 10 -3 0
-8 -4 -11 -10z"/>
<path d="M590 510 c0 -6 -6 -8 -12 -4 -7 4 -10 4 -6 -1 4 -4 3 -17 -3 -29 -10
-21 -10 -21 6 -1 9 11 21 19 26 18 12 -4 12 14 -1 22 -5 3 -10 1 -10 -5z"/>
<path d="M2008 509 c-4 -11 1 -15 17 -15 13 0 21 4 19 8 -3 5 -9 6 -14 3 -4
-3 -10 0 -12 7 -3 8 -6 7 -10 -3z"/>
<path d="M456 494 c-5 -14 -4 -15 9 -4 17 14 19 20 6 20 -5 0 -12 -7 -15 -16z"/>
<path d="M2122 501 c-11 -7 -10 -9 3 -14 9 -4 14 -3 10 2 -3 5 1 12 7 14 7 3
9 6 3 6 -5 0 -16 -3 -23 -8z"/>
<path d="M2156 482 c-2 -4 -1 -14 4 -22 7 -11 9 -9 7 8 -1 24 -3 26 -11 14z"/>
<path d="M2030 470 c8 -5 20 -10 25 -10 6 0 3 5 -5 10 -8 5 -19 10 -25 10 -5
0 -3 -5 5 -10z"/>
<path d="M530 439 c0 -5 5 -7 10 -4 6 3 10 8 10 11 0 2 -4 4 -10 4 -5 0 -10
-5 -10 -11z"/>
<path d="M1190 439 c0 -5 5 -7 10 -4 6 3 10 8 10 11 0 2 -4 4 -10 4 -5 0 -10
-5 -10 -11z"/>
<path d="M2195 440 c-3 -5 -1 -10 4 -10 6 0 11 5 11 10 0 6 -2 10 -4 10 -3 0
-8 -4 -11 -10z"/>
<path d="M2083 433 c9 -2 14 -9 11 -15 -4 -7 -2 -8 5 -4 15 10 4 26 -17 25
-15 -1 -15 -2 1 -6z"/>
<path d="M470 400 c6 -11 13 -20 16 -20 2 0 0 9 -6 20 -6 11 -13 20 -16 20 -2
0 0 -9 6 -20z"/>
</g>
</svg>
