<svg xmlns="http://www.w3.org/2000/svg" width="933.3" height="933.3" version="1.0" viewBox="0 0 700 700"><path d="M163.5 52.4c-11.2 2.8-14 5.1-58.6 49.6a812.2 812.2 0 00-45.7 47.5 43.2 43.2 0 00-2.5 41.8c2.4 5.8 8.8 12.4 88.6 92.4l86 86.2-2.6 8.3a548.1 548.1 0 00-11.2 42.8l-1.9 8.5-2 11A371.9 371.9 0 00208 475c-.5 3-1.2 7.9-1.5 10.9a292.8 292.8 0 01-2 12.1 333.1 333.1 0 01-36.7 99.7A77.3 77.3 0 00161 612c0 1.1.9 2.8 1.9 3.6 4.5 3.9 61.2 24.1 81.1 29l13 3.3a755.3 755.3 0 0048 10.6l5.5 1 9.8 1.6 9 1.4c8.6.9 15 1.7 16.5 2 10.1 1.9 78.2 2.8 96.2 1.3 18-1.6 21.8-2.1 32-3.9l13-2.4c8.3-1.3 28-9.3 28-11.4 0-.4-5.5-1.1-12.2-1.4a66.4 66.4 0 01-36.3-10.7c-1.6-.8-6.9-5.3-11.6-10a52.7 52.7 0 01-13.2-18 86.9 86.9 0 0137.6-112.9 75.4 75.4 0 0134.9-8.6c6.5-.2 13.7.1 16 .7l5.8 1.3c7.9 1.7 21 8 28 13.4a81.5 81.5 0 0127.8 50.1 87.1 87.1 0 01-10.2 51.7 36 36 0 00-3.6 7.3c0 1.6 13.7-5.9 23.5-12.8a176.7 176.7 0 0032.6-32.2 218 218 0 0014.7-26.1 180.8 180.8 0 0015.7-52.4 92 92 0 011.2-8c.3-1.1.7-10.6.9-21a156 156 0 00-14.2-72.5 126.7 126.7 0 00-53.9-61.3 137.3 137.3 0 00-36-13.3c-10.3-1.7-10.3-1.6 8.8-30.4a526.9 526.9 0 0156.7-71.3c10.8-11.3 10.7-10.6 1.9-18.9a356 356 0 00-17.8-15.4c-14.5-11.6-37.2-26.7-38.4-25.4-.3.3-.8 3.4-1.1 6.9-.4 3.6-.9 6.7-1.1 7.1a406.5 406.5 0 01-13 57l-2.9 10c-.6 2.1-8.5 23.8-10.1 27.5a2257.6 2257.6 0 01-12.2 27.7c-2.3 5.5-3.9 5.5-6.4 0a34.4 34.4 0 00-3.7-6.5c-.8-.9-1.2-1.7-.8-1.7 1 0-4.7-8.2-11.4-16.5a116.4 116.4 0 00-26-23.7c-30.2-19.9-70.9-26.7-112.5-18.7l-10 1.9-81.5-81.3c-84.1-83.9-83.8-83.6-95.1-87a49.7 49.7 0 00-22.4-.3zm216.2 191.8c6.6 2.8 12.6 9.5 13.7 15.5a1537 1537 0 0011.3 46.6c.3.5-21 22.5-47.3 48.8-42.3 42.3-48.2 47.9-50.4 47.4l-4.5-.9L279 396c-24.5-5.8-27.7-7.4-32.2-15.9a21 21 0 010-19.6c2.8-5.5 111.5-113.9 116.2-115.9a28 28 0 0116.7-.4zM421 376.3c2.9 12.1 5.4 24 5.5 26.6a21.6 21.6 0 01-21.1 22.1c-2.4 0-11.9-1.8-21.1-4l-31.1-7.5c-7.8-1.9-14.9-3.5-15.7-3.5-.7 0-1.6-.4-1.9-.9-.3-.4 16.4-17.8 37.2-38.5l37.7-37.7 2.6 10.8 7.9 32.6z"/></svg>