<svg xmlns="http://www.w3.org/2000/svg" width="466" height="200" fill="none" preserveAspectRatio="none"><path fill="url(#paint0_linear)" fill-opacity=".75" d="M0 190V20c68 0 150.22 29.1 239 27.5C327.78 45.9 410.26 10 466 10v180H0z"/><path fill="url(#paint1_linear)" fill-opacity=".25" d="M0 200V0c68 0 151.22 21.6 240 20 88.78-1.6 170.26 17 226 17v163H0z"/><path fill="url(#paint2_linear)" fill-opacity=".75" d="M0 159.55v-119s75-30.5 214-30.5c88.78-1.6 179.5 36 252 36v113.5H0z"/><defs><linearGradient id="paint0_linear" x1="233" x2="233" y1="-4.99" y2="190" gradientUnits="userSpaceOnUse"><stop stop-color="#4342E5"/><stop offset="1" stop-color="#5B7AEE" stop-opacity="0"/><stop offset="1" stop-color="#4342E5"/></linearGradient><linearGradient id="paint1_linear" x1="233" x2="233" y1="5.01" y2="200" gradientUnits="userSpaceOnUse"><stop stop-color="#fff"/><stop offset="1" stop-color="#fff" stop-opacity="0"/></linearGradient><linearGradient id="paint2_linear" x1="233" x2="233" y1="-2.45" y2="159.55" gradientUnits="userSpaceOnUse"><stop stop-color="#4342E5"/><stop offset="1" stop-color="#5B7AEE" stop-opacity="0"/><stop offset="1" stop-color="#4342E5"/></linearGradient></defs></svg>